<?xml version="1.0" encoding="utf-8"?>
<!-- Generator: Adobe Illustrator 16.0.0, SVG Export Plug-In . SVG Version: 6.00 Build 0)  -->
<!DOCTYPE svg PUBLIC "-//W3C//DTD SVG 1.1//EN" "http://www.w3.org/Graphics/SVG/1.1/DTD/svg11.dtd">
<svg version="1.1" id="Capa_1" xmlns="http://www.w3.org/2000/svg" xmlns:xlink="http://www.w3.org/1999/xlink" x="0px" y="0px"
	 width="24px" height="24px" viewBox="5.743 5.743 24 24" enable-background="new 5.743 5.743 24 24" xml:space="preserve">
<g>
	<path fill="none" stroke="#D5DDDF" stroke-width="1.2" stroke-linecap="square" stroke-miterlimit="10"
		d="M28.232,23.013c0,1.312-1.025,2.742-2.29,2.742c-1.266,0-2.291-1.429-2.291-2.742c0-1.314,1.025-2.009,2.291-2.009
		C27.206,21.004,28.232,21.7,28.232,23.013z M7.257,23.013c0,1.312,1.025,2.742,2.291,2.742s2.291-1.429,2.291-2.742
		c0-1.314-1.025-2.009-2.291-2.009S7.257,21.7,7.257,23.013z M15.455,23.013c0,1.312,1.025,2.742,2.29,2.742
		c1.264,0,2.291-1.429,2.291-2.742c0-1.314-1.026-2.009-2.291-2.009C16.48,21.004,15.455,21.7,15.455,23.013z M29.452,26.649
		c-0.189-0.173-0.447-0.27-0.714-0.27h-2.173h-1.254h-2.169c-0.555,0-1.007,0.408-1.007,0.916l-0.002,2.448h7.577l0.032-2.44
		C29.747,27.058,29.643,26.823,29.452,26.649z M12.345,26.379h-2.173H8.919H6.751c-0.556,0-1.007,0.408-1.007,0.916v2.448h7.576
		l0.032-2.44c0.002-0.242-0.103-0.479-0.293-0.652C12.871,26.476,12.615,26.379,12.345,26.379z M20.542,26.379H18.37h-1.254h-2.168
		c-0.556,0-1.007,0.408-1.007,0.916l-0.001,2.448h7.575l0.031-2.44c0.004-0.242-0.102-0.479-0.29-0.652
		C21.068,26.476,20.812,26.379,20.542,26.379z M28.883,8.075v9.183c0,1.288-1.147,2.332-2.563,2.332H14.584v-6.287l1.48,1.826
		c0.242,0.299,0.698,0.382,1.048,0.192l1.768-0.965c0.377-0.207,0.5-0.65,0.273-0.993c-0.227-0.343-0.715-0.454-1.091-0.248
		l-1.147,0.627l-1.426-1.762c-0.15-0.184-0.388-0.294-0.641-0.294h-1.714l-0.299,0.363l0.55,2.834l-0.745,0.639l-0.746-0.639
		l0.55-2.834l-0.3-0.363H10.43c-0.439,0-0.795,0.324-0.795,0.722v4.701c0,0.399,0.356,0.722,0.795,0.722
		c0.094,0,0.182-0.017,0.264-0.043v1.801H9.169c-1.416,0-2.563-1.043-2.563-2.331V8.074c0-1.287,1.147-2.331,2.563-2.331h17.15
		C27.737,5.744,28.883,6.788,28.883,8.075z M14.448,9.028c0-1.037-0.811-1.586-1.81-1.586c-0.999,0-1.809,0.549-1.809,1.586
		c0,1.037,0.811,2.167,1.809,2.167C13.638,11.196,14.448,10.065,14.448,9.028z"/>
</g>
</svg>