<?xml version="1.0" encoding="utf-8"?>
<!-- Generator: Adobe Illustrator 16.0.0, SVG Export Plug-In . SVG Version: 6.00 Build 0)  -->
<!DOCTYPE svg PUBLIC "-//W3C//DTD SVG 1.1//EN" "http://www.w3.org/Graphics/SVG/1.1/DTD/svg11.dtd">
<svg version="1.1" id="Layer_1" xmlns="http://www.w3.org/2000/svg" xmlns:xlink="http://www.w3.org/1999/xlink" x="0px" y="0px"
	 width="24px" height="24px" viewBox="408.945 285.64 24 24" enable-background="new 408.945 285.64 24 24" xml:space="preserve">
<g>
	<g>
		<path fill="none" stroke="#D5DDDF" stroke-width="1.2" stroke-linecap="square" stroke-miterlimit="10"
			d="M427.923,300.508c-0.492-0.512-1.086-0.785-1.715-0.785c-0.624,0-1.223,0.269-1.734,0.78l-1.604,1.596
			c-0.132-0.071-0.264-0.137-0.391-0.203c-0.183-0.091-0.354-0.177-0.502-0.269c-1.501-0.952-2.866-2.192-4.174-3.798
			c-0.634-0.8-1.061-1.474-1.37-2.158c0.416-0.38,0.802-0.775,1.177-1.155c0.142-0.142,0.284-0.289,0.426-0.431
			c1.065-1.063,1.065-2.441,0-3.505l-1.385-1.383c-0.157-0.157-0.319-0.319-0.472-0.481c-0.304-0.314-0.624-0.638-0.954-0.942
			c-0.492-0.486-1.081-0.745-1.699-0.745c-0.619,0-1.218,0.259-1.725,0.745c-0.005,0.005-0.005,0.005-0.01,0.01l-1.725,1.737
			c-0.649,0.648-1.02,1.439-1.101,2.355c-0.122,1.479,0.314,2.857,0.649,3.759c0.822,2.213,2.049,4.265,3.88,6.463
			c2.222,2.649,4.896,4.741,7.949,6.215c1.166,0.553,2.724,1.206,4.464,1.317c0.106,0.005,0.218,0.01,0.319,0.01
			c1.172,0,2.156-0.42,2.927-1.256c0.005-0.011,0.016-0.016,0.021-0.025c0.264-0.319,0.568-0.608,0.888-0.917
			c0.218-0.208,0.441-0.426,0.659-0.653c0.503-0.521,0.767-1.13,0.767-1.753c0-0.628-0.27-1.23-0.781-1.737L427.923,300.508z
			 M429.739,305.842C429.733,305.842,429.733,305.846,429.739,305.842c-0.198,0.213-0.401,0.405-0.619,0.618
			c-0.33,0.313-0.665,0.644-0.979,1.013c-0.512,0.547-1.115,0.806-1.907,0.806c-0.076,0-0.157,0-0.233-0.005
			c-1.506-0.097-2.906-0.685-3.956-1.186c-2.872-1.388-5.393-3.358-7.487-5.855c-1.73-2.082-2.887-4.007-3.653-6.073
			c-0.472-1.262-0.644-2.244-0.568-3.171c0.051-0.593,0.279-1.084,0.7-1.505l1.729-1.727c0.249-0.233,0.512-0.36,0.771-0.36
			c0.32,0,0.579,0.193,0.741,0.355c0.005,0.005,0.01,0.01,0.015,0.015c0.31,0.289,0.604,0.587,0.913,0.907
			c0.157,0.162,0.32,0.324,0.482,0.491l1.385,1.383c0.538,0.537,0.538,1.033,0,1.57c-0.147,0.147-0.29,0.294-0.437,0.436
			c-0.426,0.436-0.832,0.841-1.273,1.236c-0.01,0.01-0.02,0.015-0.025,0.025c-0.436,0.436-0.355,0.861-0.264,1.15
			c0.005,0.015,0.01,0.03,0.015,0.045c0.36,0.872,0.868,1.692,1.639,2.67l0.005,0.005c1.4,1.722,2.876,3.064,4.505,4.093
			c0.208,0.132,0.421,0.238,0.624,0.339c0.183,0.092,0.354,0.178,0.502,0.269c0.021,0.011,0.04,0.025,0.061,0.036
			c0.173,0.086,0.335,0.126,0.502,0.126c0.422,0,0.686-0.263,0.771-0.35l1.734-1.732c0.173-0.172,0.447-0.38,0.767-0.38
			c0.314,0,0.573,0.198,0.73,0.37c0.005,0.005,0.005,0.005,0.01,0.01l2.795,2.791C430.256,304.773,430.256,305.304,429.739,305.842z
			"/>
		<path fill="none" stroke="#D5DDDF" stroke-width="1.2" stroke-linecap="square" stroke-miterlimit="10"
			d="M421.917,291.349c1.329,0.223,2.536,0.851,3.5,1.813s1.588,2.168,1.816,3.495c0.056,0.334,0.345,0.567,0.674,0.567
			c0.041,0,0.076-0.005,0.117-0.01c0.375-0.061,0.624-0.415,0.563-0.79c-0.273-1.606-1.034-3.07-2.196-4.229
			c-1.161-1.16-2.627-1.92-4.235-2.193c-0.376-0.061-0.725,0.188-0.791,0.557S421.541,291.289,421.917,291.349z"/>
		<path fill="none" stroke="#D5DDDF" stroke-width="1.2" stroke-linecap="square" stroke-miterlimit="10"
			d="M432.934,296.227c-0.451-2.644-1.699-5.05-3.617-6.965c-1.917-1.915-4.326-3.161-6.975-3.611
			c-0.37-0.066-0.721,0.188-0.786,0.557c-0.061,0.375,0.188,0.724,0.563,0.79c2.364,0.4,4.521,1.52,6.235,3.227
			c1.714,1.712,2.83,3.865,3.23,6.226c0.057,0.334,0.346,0.567,0.675,0.567c0.041,0,0.076-0.005,0.117-0.01
			C432.747,296.952,433.001,296.597,432.934,296.227z"/>
	</g>
</g>
</svg>